<?xml version="1.0" encoding="UTF-8"?>
<svg width="225.71mm" height="56.436mm" version="1.1" viewBox="366 84.9 799.75003 199.97145" xml:space="preserve" xmlns="http://www.w3.org/2000/svg" xmlns:cc="http://creativecommons.org/ns#" xmlns:dc="http://purl.org/dc/elements/1.1/" xmlns:rdf="http://www.w3.org/1999/02/22-rdf-syntax-ns#"><metadata><rdf:RDF><cc:Work rdf:about=""><dc:format>image/svg+xml</dc:format><dc:type rdf:resource="http://purl.org/dc/dcmitype/StillImage"/><dc:title/></cc:Work></rdf:RDF></metadata><style type="text/css">
	.st0{fill:#69B93B;}
	.st1{enable-background:new    ;}
	.st2{font-family:'Roboto-Light';}
	.st4{clip-path:url(#SVGID_2_);}
	.st5{clip-path:url(#SVGID_4_);fill:#FFFFFF;}
</style><g transform="translate(-71.75 -6.0428)"><path d="m509.8 206.6h-1.7c-0.5-5.8-5.3-10.4-11.3-10.4-5.2 0-9.5 3.5-10.8 8.2-1.2-0.9-2.8-1.6-4.5-1.6s-3.3 0.6-4.5 1.6c-1.4-4.7-5.8-8.2-10.8-8.2-5.9 0-10.8 4.5-11.3 10.4h-1.7c-0.7 0-1.4 0.6-1.4 1.4s0.6 1.4 1.4 1.4h1.8c0.8 5.4 5.5 9.6 11.2 9.6 6.2 0 11.2-5 11.3-11.1 0.9-1.4 2.4-2.1 4.2-2.1s3.3 0.9 4.2 2.1c0.1 6.1 5.1 11.1 11.3 11.1 5.6 0 10.4-4.2 11.2-9.6h1.8c0.7 0 1.4-0.6 1.4-1.4s-1-1.4-1.8-1.4zm-50.6 1c0-3.8 3-6.9 6.9-6.9s6.9 3 6.9 6.9-3 6.9-6.9 6.9-6.9-3-6.9-6.9zm30.9 0c0-3.8 3-6.9 6.9-6.9s6.9 3 6.9 6.9-3 6.9-6.9 6.9-6.9-3-6.9-6.9z"/><path d="m458.2 175.6h45.9 3.2l-1-2.9-1.7-4.8-2.7-7.3-4.3-12.3c-0.5-1.1-1.6-1.7-2.8-1.4l-10.3 3.4-9.2 3c-0.1 0-0.2 0.1-0.5 0.1-0.6 0-1-0.3-1.2-0.9-0.2-0.7 0.1-1.5 0.8-1.7l3.3-1.1v-0.8l-10.6-2.1c-1.1-0.2-2.1 0.3-2.5 1.5l-4.3 12.3-1.2 3.5-3 8.8-1 2.9h3.3v-0.2z"/><path d="m525.4 182.5c-0.2-1-1.1-1.7-2.1-1.7h-83.4c-1 0-1.9 0.7-2.1 1.7s0.2 2 1.2 2.5c0.7 0.3 15.7 7.2 42.3 7.2s42.4-6.9 43.1-7.2c0.7-0.5 1.2-1.5 1-2.5z"/><path d="m507 224.8h-25.4-0.1-25.5c-0.5 0-0.9 0.2-1.1 0.7s-0.2 0.9 0 1.4c2.8 5.1 8.1 8.2 14 8.2 5.1 0 9.7-2.4 12.7-6.3 2.9 3.9 7.7 6.3 12.7 6.3 5.8 0 11.2-3.2 14-8.2 0.2-0.5 0.2-0.9 0-1.4-0.4-0.5-0.9-0.7-1.3-0.7z"/></g><g transform="translate(-145.75 -7.8393)"><path d="m1227 185.8h76.1c2 0 3.1-2.4 1.7-3.9l-38.1-34.2c-0.9-1-2.4-1-3.3 0l-38.1 34.2c-1.4 1.5-0.3 3.9 1.7 3.9zm38-21.1c3.1 0 5.7 2.5 5.7 5.7 0 3.1-2.5 5.7-5.7 5.7s-5.7-2.5-5.7-5.7c0.1-3.1 2.6-5.7 5.7-5.7z"/><polygon points="1311.5 238.5 1311.5 232.3 1305.8 232.3 1305.8 227.1 1295.8 227.1 1295.8 192.2 1299.3 192.2 1299.3 188.2 1279.2 188.2 1279.2 192.2 1282.8 192.2 1282.8 227.1 1271.6 227.1 1271.6 192.2 1275.1 192.2 1275.1 188.2 1255 188.2 1255 192.2 1258.5 192.2 1258.5 227.1 1247.3 227.1 1247.3 192.2 1250.9 192.2 1250.9 188.2 1230.8 188.2 1230.8 192.2 1234.3 192.2 1234.3 227.1 1224.3 227.1 1224.3 232.3 1218.6 232.3 1218.6 238.5"/></g><g transform="translate(-31.315 -7.6294e-6)" font-family="Roboto-Light" font-size="20px"><text class="st2 st3" x="544.98022" y="230.71129">cadastramos a</text>
<text class="st2 st3" x="538.98413" y="255.71129">resposta no seu</text>
<text class="st2 st3" x="571.24487" y="280.7113">protocolo</text>
</g><g transform="translate(-27.906 -7.6294e-6)"><g transform="translate(.83252)" font-family="Roboto-Light" font-size="20px"><text class="st2 st3" x="544.50812" y="100.8961">você cadastra</text>
<text class="st2 st3" x="559.30304" y="125.8961">seu pedido</text>
</g></g><g transform="translate(-19.335 10.78)"><g transform="translate(-68.782 -29.128)" fill="#69b93b"><polygon class="st0" points="606.7 173.4 739.4 173.4 743.7 177.4 739.4 181.4 606.7 181.4"/><rect class="st0" transform="matrix(-.7071 -.7071 .7071 -.7071 1131.8 814.98)" x="725.6" y="169.1" width="18.3" height="8"/><rect class="st0" transform="matrix(-.7071 .7071 -.7071 -.7071 1382.6 -209.5)" x="725.6" y="177.6" width="18.3" height="8"/><g transform="matrix(-1,0,0,1,136.5,41.993)"><rect class="st0" x="-606.6" y="170.8" width="131" height="0"/><rect class="st0" transform="matrix(.7071 -.7071 .7071 .7071 -255.8 -292.64)" x="-491.1" y="166.5" width="20" height="0"/><rect class="st0" transform="matrix(.7071 .7071 -.7071 .7071 -20.009 390.3)" x="-491.1" y="175" width="20" height="0"/></g></g><g transform="matrix(-1 0 0 1 1281.9 10.573)" fill="#da2e2f" fill-opacity=".94118"><polygon class="st0" points="739.4 181.4 606.7 181.4 606.7 173.4 739.4 173.4 743.7 177.4"/><rect class="st0" transform="matrix(-.7071 -.7071 .7071 -.7071 1131.8 814.98)" x="725.6" y="169.1" width="18.3" height="8"/><rect class="st0" transform="matrix(-.7071 .7071 -.7071 -.7071 1382.6 -209.5)" x="725.6" y="177.6" width="18.3" height="8"/><g transform="matrix(-1,0,0,1,136.5,41.993)"><rect class="st0" x="-606.6" y="170.8" width="131" height="0"/><rect class="st0" transform="matrix(.7071 -.7071 .7071 .7071 -255.8 -292.64)" x="-491.1" y="166.5" width="20" height="0"/><rect class="st0" transform="matrix(.7071 .7071 -.7071 .7071 -20.009 390.3)" x="-491.1" y="175" width="20" height="0"/></g></g></g><g transform="translate(-56.344 7.3496)"><text class="st1" x="952.90002" y="101.49569" enable-background="new" font-family="Roboto-Light" font-size="20px"><tspan class="st2 st3" x="952.90002" y="101.49569">fazemos</tspan><tspan class="st2 st3" x="943.30005" y="125.4957">seu pedido</tspan></text>
<g transform="translate(-9.5684 10)" font-family="Roboto-Light" font-size="20px"><text class="st2 st3" x="969.88995" y="229.61169">o órgão</text>
<text class="st2 st3" x="960.89093" y="254.61169">responde</text>
</g><g transform="translate(0 6.0297)"><g transform="translate(-72.653 -29.134)" fill="#69b93b"><polygon class="st0" points="1002.3 181.4 1002.3 173.4 1135 173.4 1139.3 177.4 1135 181.4"/><rect class="st0" transform="matrix(-.7071 -.7071 .7071 -.7071 1807.1 1094.7)" x="1121.2" y="169.1" width="18.3" height="8"/><rect class="st0" transform="matrix(-.7071 .7071 -.7071 -.7071 2057.9 -489.24)" x="1121.2" y="177.6" width="18.3" height="8"/><g transform="matrix(-1,0,0,1,136.5,41.993)"><rect class="st0" x="-1002.2" y="170.8" width="131" height="0"/><rect class="st0" transform="matrix(.7071 -.7071 .7071 .7071 -371.67 -572.37)" x="-886.7" y="166.5" width="20" height="0"/><rect class="st0" transform="matrix(.7071 .7071 -.7071 .7071 -135.88 670.04)" x="-886.7" y="175" width="20" height="0"/></g></g><g transform="matrix(-1 0 0 1 1673.6 10.573)" fill="#da2e2f" fill-opacity=".94118"><polygon class="st0" points="739.4 173.4 743.7 177.4 739.4 181.4 606.7 181.4 606.7 173.4"/><rect class="st0" transform="matrix(-.7071 -.7071 .7071 -.7071 1131.8 814.98)" x="725.6" y="169.1" width="18.3" height="8"/><rect class="st0" transform="matrix(-.7071 .7071 -.7071 -.7071 1382.6 -209.5)" x="725.6" y="177.6" width="18.3" height="8"/><g transform="matrix(-1,0,0,1,136.5,41.993)"><rect class="st0" x="-606.6" y="170.8" width="131" height="0"/><rect class="st0" transform="matrix(.7071 -.7071 .7071 .7071 -255.8 -292.64)" x="-491.1" y="166.5" width="20" height="0"/><rect class="st0" transform="matrix(.7071 .7071 -.7071 .7071 -20.009 390.3)" x="-491.1" y="175" width="20" height="0"/></g></g></g></g><g transform="translate(0 1.4202)"><path d="m792.89 200.12c0-3.8854-3.1916-7.077-7.2158-7.077-4.0242 0-7.2158 3.1916-7.2158 7.077s3.1916 7.077 7.2158 7.077c1.2489 0 2.359-0.27753 3.3304-0.8326l4.0242 4.0242 2.4978-2.359-3.8854-3.8854c0.83259-1.1101 1.2489-2.4978 1.2489-4.0242zm-10.962 0c0-2.0815 1.6652-3.7467 3.7467-3.7467 2.0815 0 3.7467 1.6652 3.7467 3.7467s-1.6652 3.7467-3.7467 3.7467c-2.0815-0.13876-3.7467-1.804-3.7467-3.7467z"/><path d="m807.19 136.84c2.2202 0 4.163-1.804 4.163-4.163s-1.804-4.163-4.163-4.163c-2.359 0-4.163 1.8039-4.163 4.163s1.9427 4.163 4.163 4.163zm0-5.4118c0.8326 0 1.3877 0.69382 1.3877 1.3876 0 0.69382-0.69383 1.3876-1.3877 1.3876-0.69382 0-1.3876-0.69383-1.3876-1.3876 0-0.69383 0.55506-1.3876 1.3876-1.3876z"/><path d="m793.31 136.84c2.2202 0 4.163-1.804 4.163-4.163s-1.804-4.163-4.163-4.163-4.163 1.8039-4.163 4.163 1.9427 4.163 4.163 4.163zm0-5.4118c0.83259 0 1.3876 0.69382 1.3876 1.3876 0 0.69382-0.69382 1.3876-1.3876 1.3876-0.69382 0-1.3876-0.69383-1.3876-1.3876 0-0.69383 0.55506-1.3876 1.3876-1.3876z"/><path d="m779.57 136.84c2.2202 0 4.163-1.804 4.163-4.163s-1.804-4.163-4.163-4.163c-2.359 0-4.163 1.8039-4.163 4.163s1.9427 4.163 4.163 4.163zm0-5.4118c0.83259 0 1.3876 0.69382 1.3876 1.3876 0 0.69382-0.69383 1.3876-1.3876 1.3876-0.69383 0-1.3877-0.69383-1.3877-1.3876 0-0.69383 0.55506-1.3876 1.3877-1.3876z"/><path d="m697.84 119.22v128.5h130.16v-128.5h-130.16zm124.61 5.4118v15.819h-119.06v-15.68h119.06zm-119.06 117.53v-96.442h119.06v96.303l-119.06 0.13876z"/><rect x="711.16" y="129.35" width="36.634" height="5.4118"/><rect x="745.16" y="218.43" width="23.035" height="3.4691"/><rect x="771.94" y="218.43" width="9.436" height="3.4691"/><rect x="759.59" y="227.04" width="21.786" height="3.4691"/><rect x="745.16" y="227.04" width="9.9911" height="3.4691"/><path d="m773.61 193.87h-42.74v14.015h42.74v-14.015zm-3.4691 10.546h-35.801v-7.077h35.801v7.077z"/><g transform="matrix(.43985 0 0 .43985 716.99 148.08)"><path d="m75.742 29.698v-13.603h-1.907v13.67c0 5.303-2.207 8.003-7.083 8.003-4.843 0-7.051-2.7-7.051-8.003v-13.67h-1.939v13.604c0 6.423 2.994 9.844 8.99 9.844 5.962-1e-3 8.99-3.422 8.99-9.845m5.14 9.449h15.18v-1.775h-13.306v-9.457h10.473v-1.807h-10.473v-8.238h13.273v-1.775h-15.147v23.052zm26.413-11.03h-4.909v-10.247h4.711c4.02 0 6.523 1.647 6.523 5.305 2e-3 3.69-2.602 4.942-6.325 4.942m8.53 11.03-5.827-9.782c3.394-0.624 5.53-2.599 5.53-6.256 0-4.449-3.158-7.015-8.43-7.015h-6.585v23.053h1.874v-9.453h5.633l5.502 9.453h2.303zm4.121 0h15.179v-1.775h-13.306v-9.457h10.474v-1.807h-10.474v-8.238h13.272v-1.775h-15.146v23.052zm38.568 0h1.905v-23.052h-1.972l-8.4 15.053h-0.066l-8.434-15.053h-1.972v23.053h1.873v-11.69c0-2.998-0.099-8.336-0.099-8.369h0.065c0.033 0.033 0.823 1.812 3.262 6.063l4.712 8.331h1.219l4.744-8.431c2.338-4.151 3.162-5.931 3.194-5.964h0.065c0 0.033-0.098 5.371-0.098 8.369v11.69zm27.83-11.559c0 6.358-4.447 10.18-9.982 10.18-5.566 0-9.98-3.854-9.98-10.18 0-6.292 4.414-10.146 9.98-10.146 5.535-1e-3 9.982 3.822 9.982 10.146m1.906 0c0-7.215-5.266-11.954-11.889-11.954-6.653 0-11.887 4.739-11.887 11.954s5.233 11.954 11.887 11.954c6.624 0 11.889-4.739 11.889-11.954m17.165-5.798 1.841-0.494c-0.953-3.92-4.049-5.662-8.233-5.662-4.744 0-7.506 2.27-7.506 6.091 0 4.578 4.014 5.633 7.178 6.324 2.865 0.659 6.984 0.924 6.984 5.14 0 3.13-2.24 4.645-5.964 4.645-3.821 0-6.885-1.581-7.082-5.336l-1.809 0.494c0.593 5.269 5.003 6.551 8.825 6.551 5.008 0 7.936-2.137 7.936-6.387 0-5.106-4.312-6.062-7.771-6.72-3.295-0.659-6.392-1.45-6.392-4.811 0-2.635 1.911-4.282 5.601-4.282 3.723 0 5.732 1.647 6.392 4.447"/><path d="m48.663 26.598c0 14.147-9.899 22.651-22.211 22.651-12.385 0-22.21-8.576-22.21-22.651 0-14 9.825-22.577 22.21-22.577 12.312 0 22.211 8.502 22.211 22.577m4.241 0c0-16.053-11.72-26.598-26.452-26.598-14.805 0-26.452 10.545-26.452 26.598 0 15.247 10.547 25.575 24.258 26.526h4.315c13.711-0.952 24.331-11.28 24.331-26.526"/><path d="m68.675 60.374c-1.533-1.562-15.79-14.705-18.345-17.023-1.923 2.967-4.434 5.422-7.363 7.303 1.972 2.27 15.233 17.236 16.789 18.822 1.621 1.654 5.449-0.305 7.039-2.047 1.589-1.743 3.501-5.401 1.88-7.055"/><path d="m16.691 12.081c0.49 0.868 1.558 1.243 2.47 0.842 0.446-0.197 0.904-0.374 1.375-0.532 6.383-2.133 13.18 0.015 17.271 4.876 0.519 0.618 1.358 0.862 2.123 0.606l0.011-3e-3c1.296-0.435 1.785-2.044 0.909-3.094-5.09-6.094-13.573-8.779-21.559-6.109-0.565 0.188-1.117 0.401-1.654 0.636-1.076 0.468-1.523 1.756-0.946 2.778"/><rect x="79.201" y="46.2" width="128.38" height="32.359"/><path d="m179.06 62.397v-7.678h3.885c2.929 0 4.624 1.326 4.624 3.945 0 2.684-1.757 3.732-4.501 3.732h-4.008zm8.478 10.781h4.063l-5.203-8.658c2.895-0.77 4.648-2.771 4.648-6.008 0-4.285-3.078-6.902-8.256-6.902h-7.117v21.568h3.387v-8.014h2.188c0.401 0 1.265 0 1.665-0.029l4.625 8.043zm-30.476 0h15.003v-3.17h-11.617v-6.414h8.845v-3.17h-8.845v-5.643h11.524v-3.171h-14.91v21.568zm-15.905-2.863v-7.121h4.995c2.343 0 4.191 1.326 4.191 3.637 0 2.252-1.603 3.484-4.162 3.484h-5.024zm0-9.705v-6.137h4.224c2.344 0 3.731 1.232 3.731 3.053 0 1.973-1.479 3.084-3.546 3.084h-4.409zm8.201 0.953c1.416-0.4 3.17-1.848 3.17-4.531 0-3.02-2.554-5.422-6.499-5.422h-8.257v21.568h8.657c4.961 0 7.485-2.555 7.485-6.1 0-3.391-2.524-4.994-4.557-5.393v-0.122zm-21.234 3.514h-7.856l2.064-5.207c0.77-1.914 1.787-4.381 1.817-4.412h0.093c0.031 0.031 1.018 2.498 1.787 4.41l2.095 5.209zm1.232 3.078 2.003 5.023h3.636l-8.874-21.568h-3.789l-8.904 21.568h3.573l2.033-5.023h10.322zm-34.171-0.551c0.893 4.805 5.081 5.975 8.75 5.975 4.932 0 7.856-2.123 7.856-6.283 0-4.746-3.756-5.857-6.962-6.473-3.083-0.617-5.58-1.141-5.58-3.637 0-1.85 1.325-2.99 4.1-2.99 2.836 0 4.409 1.201 4.995 3.297l3.231-0.861c-1.046-3.729-4.032-5.451-8.195-5.451-4.624 0-7.579 2.152-7.579 6.129 0 4.408 3.694 5.578 6.654 6.256 2.651 0.617 5.889 0.678 5.889 3.73 0 2.188-1.664 3.268-4.409 3.268-2.96 0-5.209-1.234-5.486-3.854l-3.264 0.894z" fill="#fff"/></g></g></svg>
