<svg viewBox="326 77.2 818 243.6" xml:space="preserve" xmlns="http://www.w3.org/2000/svg"><g fill="#FFF"><path d="M606.2 172.1c0 2.4-.4 4.8-1.3 7.1-1.6 4.3-5 7.7-9.3 9.4-4.7 1.8-9.9 1.8-14.6 0-2.1-.9-4-2.1-5.7-3.7-1.6-1.6-2.8-3.5-3.6-5.7-1.7-4.6-1.7-9.6 0-14.2.8-2.1 2.1-4 3.6-5.6 1.6-1.6 3.5-2.9 5.7-3.7 4.7-1.8 9.9-1.8 14.6 0 4.3 1.7 7.6 5.1 9.3 9.4.9 2.1 1.3 4.5 1.3 7zm-7.4 0c0-1.7-.2-3.3-.7-4.9-.4-1.4-1.1-2.6-2.1-3.7-.9-1-2-1.8-3.3-2.3-2.8-1.1-6-1.1-8.8 0-1.3.5-2.4 1.3-3.3 2.3-.9 1.1-1.7 2.3-2.1 3.7-1 3.2-1 6.7 0 9.9.4 1.4 1.1 2.6 2.1 3.7.9 1 2.1 1.8 3.3 2.3 2.8 1.1 6 1.1 8.8 0 1.3-.5 2.4-1.3 3.3-2.3.9-1.1 1.7-2.3 2.1-3.7.5-1.7.7-3.4.7-5zM626.3 177.5v12h-7.2v-34.9h11.8c2.1 0 4.2.2 6.2.8 1.6.5 3.1 1.3 4.3 2.4 1.1 1 2 2.2 2.5 3.6.6 1.4.8 3 .8 4.5 0 1.6-.3 3.2-.8 4.7-.6 1.4-1.5 2.7-2.6 3.7-1.3 1.1-2.7 1.9-4.3 2.4-2 .6-4 .9-6.1.8h-4.6zm0-5.5h4.6c2.3 0 3.9-.6 5-1.7a6.1 6.1 0 0 0 1.6-4.5c0-.8-.1-1.6-.4-2.4-.3-.7-.7-1.3-1.2-1.8-.6-.5-1.3-.9-2-1.2-.9-.3-1.9-.4-2.9-.4h-4.6v12zM679.1 154.6v5.7h-14.9v9h11.6v5.5h-11.6v9.1h14.9v5.7h-22.2v-34.9h22.2zM696.7 154.6c.2 0 .4.1.6.2s.4.2.5.3c.2.2.4.4.5.6l17.5 22.3c-.1-.6-.1-1.2-.1-1.8v-21.7h6.4v34.9h-3.7c-.5 0-1-.1-1.4-.3s-.8-.6-1.1-.9l-17.4-22.1c0 .6.1 1.1.1 1.7v21.7h-6.4v-34.9h4.5zM763.2 169h1.4c1 .1 2-.3 2.6-1.1l8.8-11.8c.3-.5.8-.9 1.4-1.2.6-.2 1.2-.3 1.8-.3h6.3l-11.1 14.3c-.6.8-1.4 1.5-2.2 2 .6.2 1.1.5 1.5.9.5.4.9.9 1.3 1.4l11.4 16.3H780c-.4 0-.7 0-1.1-.1-.3-.1-.5-.1-.8-.3-.2-.1-.4-.2-.6-.4s-.3-.4-.5-.6l-9-12.6c-.3-.4-.6-.7-1.1-.9-.6-.2-1.2-.3-1.8-.3h-2v15.1H756v-34.9h7.2V169zM801.7 154.6c.2 0 .4.1.6.2s.4.2.5.3c.2.2.4.4.5.6l17.5 22.3c-.1-.6-.1-1.2-.1-1.8v-21.7h6.4v34.9h-3.7c-.5 0-1-.1-1.4-.3s-.8-.6-1.1-.9l-17.4-22.1c0 .6.1 1.1.1 1.7v21.7H797v-34.9h4.7zM875.7 172.1c0 2.4-.4 4.8-1.3 7.1-1.6 4.3-5 7.7-9.3 9.4-4.7 1.8-9.9 1.8-14.6 0-2.1-.9-4-2.1-5.7-3.7-1.6-1.6-2.8-3.5-3.6-5.7-1.7-4.6-1.7-9.6 0-14.2.8-2.1 2-4 3.6-5.6s3.5-2.9 5.7-3.7c4.7-1.8 9.9-1.8 14.6 0 4.3 1.7 7.7 5.1 9.3 9.4.9 2.1 1.3 4.5 1.3 7zm-7.4 0c0-1.7-.2-3.3-.7-4.9-.4-1.4-1.1-2.6-2.1-3.7-.9-1-2-1.8-3.3-2.3-2.8-1.1-6-1.1-8.8 0-1.3.5-2.4 1.3-3.3 2.3-.9 1.1-1.7 2.3-2.1 3.7-1 3.2-1 6.7 0 9.9.4 1.4 1.1 2.6 2.1 3.7.9 1 2.1 1.8 3.3 2.3 2.8 1.1 6 1.1 8.8 0 1.3-.5 2.4-1.3 3.3-2.3.9-1.1 1.7-2.3 2.1-3.7.5-1.7.7-3.4.7-5zM884.4 154.6h6.1c.6 0 1.1.1 1.6.4.4.3.7.7.8 1.2l5.4 19.7c.1.6.3 1.1.4 1.8.1.6.3 1.3.4 2 .1-.7.3-1.4.5-2s.3-1.2.5-1.8l6.3-19.7c.2-.4.4-.8.8-1.1s1-.5 1.6-.5h2.1c.5 0 1.1.1 1.5.4s.7.7.9 1.1l6.3 19.7c.2.5.3 1.1.5 1.7s.3 1.2.4 1.9c.1-.7.3-1.3.4-1.9s.3-1.2.4-1.7l5.4-19.7c.1-.5.4-.8.8-1.1.5-.3 1-.5 1.6-.5h5.7l-10.8 35h-6.5l-7.1-22.8c-.1-.3-.3-.7-.3-1.1l-.3-1.2-.3 1.2c-.1.4-.2.7-.3 1.1l-7.2 22.8h-6.6l-11-34.9zM953.6 183.7h13.5v5.9h-20.8v-34.9h7.2v29zM1001.3 154.6v5.7h-14.9v9H998v5.5h-11.6v9.1h14.9v5.7H979v-34.9h22.3zM1045.6 172.1c0 2.4-.4 4.8-1.3 7-.8 2.1-2.1 4-3.6 5.5-1.6 1.6-3.5 2.8-5.6 3.6-2.3.9-4.8 1.3-7.3 1.3h-13.4v-34.9h13.4c2.5 0 5 .4 7.3 1.3 2.1.8 4 2 5.6 3.6s2.8 3.5 3.6 5.5c.9 2.3 1.3 4.7 1.3 7.1zm-7.4 0c0-1.7-.2-3.3-.7-4.9-.4-1.4-1.1-2.6-2.1-3.7-.9-1-2.1-1.8-3.3-2.3-1.4-.6-2.9-.9-4.4-.8h-6.2V184h6.2c1.5 0 3-.3 4.4-.8 1.3-.5 2.4-1.3 3.3-2.3.9-1.1 1.6-2.4 2.1-3.7.5-1.8.7-3.5.7-5.1zM1081.8 189c-2.1.6-4.2.9-6.4.9-2.7 0-5.3-.4-7.8-1.3-2.2-.8-4.3-2.1-6-3.7s-3-3.5-3.8-5.7c-.9-2.3-1.4-4.7-1.3-7.1 0-2.5.4-4.9 1.3-7.2.8-2.1 2.1-4 3.7-5.6s3.6-2.9 5.8-3.7c2.4-.9 4.9-1.4 7.5-1.3 1.4 0 2.7.1 4 .3 1.2.2 2.3.5 3.5 1 2 .8 3.8 1.9 5.3 3.3l-2 3.2c-.3.5-.7.8-1.3.9s-1.2 0-1.7-.4c-.6-.4-1.1-.7-1.7-1s-1.2-.5-1.8-.7c-.7-.2-1.3-.4-2-.5-.8-.1-1.7-.2-2.5-.2-1.5 0-3 .3-4.4.8-1.3.5-2.4 1.4-3.3 2.4-1 1.1-1.7 2.3-2.1 3.7-.5 1.6-.8 3.2-.7 4.8 0 1.8.3 3.5.8 5.2.5 1.4 1.3 2.7 2.3 3.8 1 1 2.2 1.8 3.5 2.4 2.5.9 5.2 1.1 7.7.5.9-.2 1.8-.6 2.7-1v-5.9h-4c-.4 0-.8-.1-1.1-.4-.3-.2-.4-.6-.4-1v-4h12v14.4c-1.8 1.5-3.7 2.5-5.8 3.1zM1123.3 154.6v5.7h-14.9v9h11.6v5.5h-11.6v9.1h14.9v5.7H1101v-34.9h22.3zM529.85 107.278l-32.139 43.02-5.207-3.891 32.14-43.02zM499.421 120.504l-11.543 23.186-5.819-2.897 11.544-23.186zM488.598 99.794l-11.396 39.072-6.24-1.82 11.396-39.072zM468.22 110.222l-2.667 25.763-6.465-.67 2.667-25.762zM453.75 135.176l-6.48.496-2.215-28.916 6.48-.496zM442.005 136.518l-6.288 1.646-5.015-19.154 6.288-1.647zM430.655 140.03l-5.893 2.743-5.612-12.058 5.893-2.743zM420.148 145.414l-5.31 3.749-2.999-4.248 5.31-3.749zM410.674 152.633l-4.555 4.638-15.198-14.925 4.555-4.638zM399.1 166.8l-23.5-16.1 3.6-5.4 23.6 16.1zM396.507 171.487l-2.633 5.942-14.812-6.562 2.633-5.943zM392.124 182.548l-1.53 6.317-43.93-10.644 1.53-6.318zM389.854 194.155l-.378 6.49-32.744-1.906.378-6.489zM390.41 212.466l-31.767 3.866-.785-6.453 31.767-3.865zM393.413 223.873l-7.068 2.193-1.927-6.208 7.068-2.193zM398.48 234.694l-23.855 12.43-3.003-5.763 23.855-12.43zM405.358 244.26l-22.91 17.777-3.985-5.135 22.91-17.777zM413.797 252.546l-18.896 21.067-4.838-4.34 18.896-21.067zM423.663 259.235l-6.816 11.07-5.535-3.408 6.816-11.07zM434.49 263.942l-9.242 23.658-6.054-2.365 9.243-23.658zM446.001 266.705l-4.462 22.869-6.38-1.245 4.462-22.869zM457.868 267.327l-.218 16.199-6.499-.088.218-16.198zM474.845 296.8l-6.41 1.076-5.2-30.966 6.41-1.077zM487.429 280.188l-6.115 2.203-6.406-17.781 6.116-2.203zM485.8 260.1l23.6 40.1 5.6-3.3-23.6-40.1zM499.6 257.5l-3.6-3.7 4.7-4.4 3.5 3.6zM524.813 253.954l-4.12 5.028-16.166-13.247 4.12-5.028zM531.36 239.716l-3.155 5.683-16.525-9.174 3.155-5.683zM527.094 222.13l-2.09 6.155-7.953-2.7 2.089-6.155zM546.28 211.528l-.958 6.429-25.024-3.727.957-6.429zM537.628 202.267l-16.093.482-.195-6.497 16.093-.483zM540.71 186.33l-19.85 4.25-1.36-6.355 19.849-4.251zM530.647 173.823l-12.76 5.257-2.476-6.01 12.76-5.257zM546.696 146.68l-33.844 21.697-3.508-5.473 33.844-21.696zM511.203 153.894l-5.123 4.77-4.43-4.756 5.123-4.77zM479.5 171.8l-2.5-2.1 1.7-2 2.5 2.1-1.2 1.4zM475.155 165.613l-4.41 8.864-2.865-1.425 4.41-8.864zM468.442 162.686l-1.588 5.475-3.073-.891 1.587-5.475zM461.39 161.038l-1.004 9.748-3.183-.328 1.003-9.748zM454.776 169.665l-3.191.244-.687-8.974 3.19-.244zM449.756 172.629l-3.095.81-2.913-11.125 3.095-.81zM445.514 175.826l-2.902 1.35-5.61-12.06 2.902-1.35zM440.7 183.1l-9.9-14.1 2.6-1.9 9.9 14.2zM435.64 179.456l-2.242 2.283-7.92-7.777 2.242-2.283zM431.097 182.699l-1.798 2.647-8.19-5.563 1.799-2.647zM430.75 188.522l-1.297 2.925-11.702-5.188 1.297-2.925zM420.82 191.189l-.754 3.11-4.47-1.084.753-3.11zM423.149 197.802l-.186 3.194-8.086-.469.186-3.195zM423.674 206.807l-8.339 1.016-.387-3.176 8.339-1.017zM417.2 214.9l-1-3.1 15.7-4.8 1 3.1zM428.91 217.074l-8.6 4.488-1.48-2.837 8.599-4.488zM431.7 221.852l-7.271 5.635-1.96-2.529 7.271-5.636zM435.93 225.637l-6.345 7.07-2.382-2.137 6.346-7.07zM442.562 225.37l-6.969 11.328-2.725-1.677 6.969-11.328zM445.927 230.468l-3.634 9.316-2.982-1.163 3.634-9.316zM451.101 230.764l-2.074 10.7-3.142-.609 2.075-10.7zM456.812 229.221l-.17 12.8-3.2-.043.17-12.8zM463.873 241.2l-3.156.53-1.389-8.284 3.156-.53zM470.94 239.094l-3.01 1.086-4.175-11.57 3.01-1.085zM477.34 235.737l-2.77 1.604-1.553-2.683 2.77-1.604zM480.7 233.4l-11.6-13.6 2.5-2.1 11.5 13.6zM488.026 225.834l-2.028 2.475-8.664-7.099 2.029-2.475zM491.913 219.69l-1.554 2.797-10.316-5.73 1.554-2.797zM493.6 215.9l-14.5-4.9 1-3.1 14.5 5zM496 205.726l-.473 3.165-9.79-1.463.472-3.165zM496.284 201.708l-12.593.4-.102-3.198 12.594-.4zM495.718 194.358l-11.245 2.41-.67-3.129 11.244-2.41zM493.82 187.36l-12.114 4.983-1.218-2.959 12.115-4.983zM490.654 180.744l-4.799 3.075-1.726-2.694 4.799-3.075zM486.49 174.812l-11.272 10.494-2.18-2.342 11.27-10.494zM584 213.6c2 0 3.8.2 5.2.6 1.5.4 2.7 1 3.6 1.7s1.6 1.6 2.1 2.7c.4 1.1.7 2.3.7 3.6 0 .8-.1 1.6-.4 2.3s-.6 1.4-1.1 2.1c-.5.6-1.2 1.2-1.9 1.7-.8.5-1.7.9-2.7 1.3 2.4.5 4.3 1.3 5.5 2.6s1.8 2.9 1.8 5c0 1.4-.3 2.7-.8 3.8-.5 1.2-1.3 2.1-2.3 3-1 .8-2.2 1.5-3.7 1.9-1.4.5-3.1.7-4.9.7h-11.7v-33.1H584zm-6.1 3.5v11.3h5.9c1.3 0 2.4-.1 3.3-.4s1.7-.7 2.3-1.2 1.1-1.1 1.4-1.8.4-1.5.4-2.3c0-2-.6-3.4-1.8-4.3s-3-1.4-5.4-1.4h-6.1zm7.1 26c1.3 0 2.4-.1 3.3-.4s1.7-.7 2.3-1.2 1-1.2 1.3-1.9.4-1.5.4-2.4c0-1.7-.6-3.1-1.8-4.1s-3-1.5-5.5-1.5h-7.2v11.5h7.2zM634.6 246.7h-4c-.8 0-1.4-.3-1.8-.9l-8.6-11.8c-.3-.4-.5-.6-.8-.8s-.8-.2-1.4-.2h-3.4v13.8h-4.5v-33.1h9.3c2.1 0 3.9.2 5.4.6s2.8 1 3.8 1.8 1.7 1.8 2.2 2.9.7 2.4.7 3.8c0 1.2-.2 2.3-.6 3.3s-.9 1.9-1.6 2.7-1.6 1.5-2.6 2.1-2.2 1-3.4 1.3c.6.3 1.1.8 1.5 1.4l9.8 13.1zm-15.3-17.1c1.3 0 2.4-.2 3.4-.5s1.8-.8 2.5-1.3c.7-.6 1.2-1.3 1.5-2.1s.5-1.7.5-2.7c0-2-.6-3.5-1.9-4.5s-3.2-1.5-5.8-1.5h-4.9v12.5h4.7zM672.9 246.7h-3.5c-.4 0-.7-.1-1-.3-.2-.2-.4-.5-.6-.8l-3.1-8H650l-3.1 8c-.1.3-.3.5-.5.7-.3.2-.6.3-1 .3h-3.5l13.2-33.1h4.5l13.3 33.2zm-9.3-12.3-5.2-13.5c-.2-.4-.3-.9-.5-1.4s-.3-1.1-.5-1.7c-.3 1.2-.7 2.3-1 3.1l-5.2 13.4h12.4zM701.1 218.8c-.1.2-.3.4-.5.5s-.4.2-.6.2c-.3 0-.6-.1-.9-.4-.4-.3-.8-.6-1.3-.9s-1.2-.6-1.9-.9-1.7-.4-2.7-.4-1.9.1-2.6.4c-.8.3-1.4.6-1.9 1.1s-.9 1-1.2 1.6-.4 1.3-.4 2c0 .9.2 1.7.7 2.3s1.1 1.1 1.8 1.6c.7.4 1.6.8 2.5 1.1s1.9.6 2.9 1c1 .3 2 .7 2.9 1.1s1.8 1 2.5 1.6 1.3 1.4 1.8 2.4c.5.9.7 2.1.7 3.5s-.2 2.8-.7 4.1-1.2 2.4-2.2 3.3c-.9.9-2.1 1.7-3.5 2.2s-2.9.8-4.7.8c-2.2 0-4.1-.4-5.9-1.2s-3.3-1.8-4.5-3.2l1.3-2.1c.1-.2.3-.3.4-.4.2-.1.4-.2.6-.2s.4.1.7.2c.3.2.5.4.9.6.3.2.7.5 1.1.8s.9.6 1.4.8 1.1.4 1.8.6 1.4.2 2.3.2c1.1 0 2-.1 2.8-.4s1.5-.7 2.1-1.2 1-1.2 1.3-1.9.5-1.6.5-2.5c0-1-.2-1.8-.7-2.5-.5-.6-1.1-1.2-1.8-1.6s-1.6-.8-2.5-1.1c-1-.3-1.9-.6-2.9-.9s-2-.7-2.9-1.1c-1-.4-1.8-1-2.5-1.6s-1.3-1.5-1.8-2.5-.7-2.2-.7-3.7c0-1.2.2-2.3.7-3.4s1.1-2.1 2-2.9 1.9-1.5 3.2-2 2.7-.8 4.4-.8c1.8 0 3.5.3 5 .9s2.9 1.4 4 2.5l-1 2.4zM720.6 246.7h-4.5v-33.1h4.5v33.1zM754.8 242.9v3.8H736v-33.1h4.5v29.3h14.3z"/></g></svg>
