<?xml version="1.0" encoding="UTF-8"?>
<svg enable-background="new 326 77.2 818 243.6" version="1.1" viewBox="326 77.2 818 243.6" xml:space="preserve" xmlns="http://www.w3.org/2000/svg">
<g fill="#FFF">
	<path d="m606.2 172.1c0 2.4-0.4 4.8-1.3 7.1-1.6 4.3-5 7.7-9.3 9.4-4.7 1.8-9.9 1.8-14.6 0-2.1-0.9-4-2.1-5.7-3.7-1.6-1.6-2.8-3.5-3.6-5.7-1.7-4.6-1.7-9.6 0-14.2 0.8-2.1 2.1-4 3.6-5.6 1.6-1.6 3.5-2.9 5.7-3.7 4.7-1.8 9.9-1.8 14.6 0 4.3 1.7 7.6 5.1 9.3 9.4 0.9 2.1 1.3 4.5 1.3 7zm-7.4 0c0-1.7-0.2-3.3-0.7-4.9-0.4-1.4-1.1-2.6-2.1-3.7-0.9-1-2-1.8-3.3-2.3-2.8-1.1-6-1.1-8.8 0-1.3 0.5-2.4 1.3-3.3 2.3-0.9 1.1-1.7 2.3-2.1 3.7-1 3.2-1 6.7 0 9.9 0.4 1.4 1.1 2.6 2.1 3.7 0.9 1 2.1 1.8 3.3 2.3 2.8 1.1 6 1.1 8.8 0 1.3-0.5 2.4-1.3 3.3-2.3 0.9-1.1 1.7-2.3 2.1-3.7 0.5-1.7 0.7-3.4 0.7-5z"/>
	<path d="m626.3 177.5v12h-7.2v-34.9h11.8c2.1 0 4.2 0.2 6.2 0.8 1.6 0.5 3.1 1.3 4.3 2.4 1.1 1 2 2.2 2.5 3.6 0.6 1.4 0.8 3 0.8 4.5 0 1.6-0.3 3.2-0.8 4.7-0.6 1.4-1.5 2.7-2.6 3.7-1.3 1.1-2.7 1.9-4.3 2.4-2 0.6-4 0.9-6.1 0.8h-4.6zm0-5.5h4.6c2.3 0 3.9-0.6 5-1.7 1.1-1.2 1.7-2.8 1.6-4.5 0-0.8-0.1-1.6-0.4-2.4-0.3-0.7-0.7-1.3-1.2-1.8-0.6-0.5-1.3-0.9-2-1.2-0.9-0.3-1.9-0.4-2.9-0.4h-4.6v12z"/>
	<path d="m679.1 154.6v5.7h-14.9v9h11.6v5.5h-11.6v9.1h14.9v5.7h-22.2v-34.9h22.2z"/>
	<path d="m696.7 154.6c0.2 0 0.4 0.1 0.6 0.2s0.4 0.2 0.5 0.3c0.2 0.2 0.4 0.4 0.5 0.6l17.5 22.3c-0.1-0.6-0.1-1.2-0.1-1.8v-1.7-20h6.4v34.9h-3.7c-0.5 0-1-0.1-1.4-0.3s-0.8-0.6-1.1-0.9l-17.4-22.1c0 0.6 0.1 1.1 0.1 1.7v1.5 20.2h-6.4v-34.9h3.8 0.7z"/>
	<path d="m763.2 169h1.4c1 0.1 2-0.3 2.6-1.1l8.8-11.8c0.3-0.5 0.8-0.9 1.4-1.2 0.6-0.2 1.2-0.3 1.8-0.3h6.3l-11.1 14.3c-0.6 0.8-1.4 1.5-2.2 2 0.6 0.2 1.1 0.5 1.5 0.9 0.5 0.4 0.9 0.9 1.3 1.4l11.4 16.3h-6.4c-0.4 0-0.7 0-1.1-0.1-0.3-0.1-0.5-0.1-0.8-0.3-0.2-0.1-0.4-0.2-0.6-0.4s-0.3-0.4-0.5-0.6l-9-12.6c-0.3-0.4-0.6-0.7-1.1-0.9-0.6-0.2-1.2-0.3-1.8-0.3h-2v15.1h-7.1v-34.9h7.2v14.5z"/>
	<path d="m801.7 154.6c0.2 0 0.4 0.1 0.6 0.2s0.4 0.2 0.5 0.3c0.2 0.2 0.4 0.4 0.5 0.6l17.5 22.3c-0.1-0.6-0.1-1.2-0.1-1.8v-1.7-20h6.4v34.9h-3.7c-0.5 0-1-0.1-1.4-0.3s-0.8-0.6-1.1-0.9l-17.4-22.1c0 0.6 0.1 1.1 0.1 1.7v1.5 20.2h-6.6v-34.9h3.8 0.9z"/>
	<path d="m875.7 172.1c0 2.4-0.4 4.8-1.3 7.1-1.6 4.3-5 7.7-9.3 9.4-4.7 1.8-9.9 1.8-14.6 0-2.1-0.9-4-2.1-5.7-3.7-1.6-1.6-2.8-3.5-3.6-5.7-1.7-4.6-1.7-9.6 0-14.2 0.8-2.1 2-4 3.6-5.6s3.5-2.9 5.7-3.7c4.7-1.8 9.9-1.8 14.6 0 4.3 1.7 7.7 5.1 9.3 9.4 0.9 2.1 1.3 4.5 1.3 7zm-7.4 0c0-1.7-0.2-3.3-0.7-4.9-0.4-1.4-1.1-2.6-2.1-3.7-0.9-1-2-1.8-3.3-2.3-2.8-1.1-6-1.1-8.8 0-1.3 0.5-2.4 1.3-3.3 2.3-0.9 1.1-1.7 2.3-2.1 3.7-1 3.2-1 6.7 0 9.9 0.4 1.4 1.1 2.6 2.1 3.7 0.9 1 2.1 1.8 3.3 2.3 2.8 1.1 6 1.1 8.8 0 1.3-0.5 2.4-1.3 3.3-2.3 0.9-1.1 1.7-2.3 2.1-3.7 0.5-1.7 0.7-3.4 0.7-5z"/>
	<path d="m884.4 154.6h6.1c0.6 0 1.1 0.1 1.6 0.4 0.4 0.3 0.7 0.7 0.8 1.2l5.4 19.7c0.1 0.6 0.3 1.1 0.4 1.8 0.1 0.6 0.3 1.3 0.4 2 0.1-0.7 0.3-1.4 0.5-2s0.3-1.2 0.5-1.8l6.3-19.7c0.2-0.4 0.4-0.8 0.8-1.1s1-0.5 1.6-0.5h2.1c0.5 0 1.1 0.1 1.5 0.4s0.7 0.7 0.9 1.1l6.3 19.7c0.2 0.5 0.3 1.1 0.5 1.7s0.3 1.2 0.4 1.9c0.1-0.7 0.3-1.3 0.4-1.9s0.3-1.2 0.4-1.7l5.4-19.7c0.1-0.5 0.4-0.8 0.8-1.1 0.5-0.3 1-0.5 1.6-0.5h5.7l-10.8 35h-6.5l-7.1-22.8c-0.1-0.3-0.3-0.7-0.3-1.1l-0.3-1.2-0.3 1.2c-0.1 0.4-0.2 0.7-0.3 1.1l-7.2 22.8h-6.6l-11-34.9z"/>
	<path d="m953.6 183.7h13.5v5.9h-20.8v-34.9h7.2v29z"/>
	<path d="M1001.3,154.6v5.7h-14.9v9H998v5.5h-11.6v9.1h14.9v5.7H979v-34.9H1001.3z"/>
	<path d="m1045.6 172.1c0 2.4-0.4 4.8-1.3 7-0.8 2.1-2.1 4-3.6 5.5-1.6 1.6-3.5 2.8-5.6 3.6-2.3 0.9-4.8 1.3-7.3 1.3h-13.4v-34.9h13.4c2.5 0 5 0.4 7.3 1.3 2.1 0.8 4 2 5.6 3.6s2.8 3.5 3.6 5.5c0.9 2.3 1.3 4.7 1.3 7.1zm-7.4 0c0-1.7-0.2-3.3-0.7-4.9-0.4-1.4-1.1-2.6-2.1-3.7-0.9-1-2.1-1.8-3.3-2.3-1.4-0.6-2.9-0.9-4.4-0.8h-6.2v23.6h6.2c1.5 0 3-0.3 4.4-0.8 1.3-0.5 2.4-1.3 3.3-2.3 0.9-1.1 1.6-2.4 2.1-3.7 0.5-1.8 0.7-3.5 0.7-5.1z"/>
	<path d="m1081.8 189c-2.1 0.6-4.2 0.9-6.4 0.9-2.7 0-5.3-0.4-7.8-1.3-2.2-0.8-4.3-2.1-6-3.7s-3-3.5-3.8-5.7c-0.9-2.3-1.4-4.7-1.3-7.1 0-2.5 0.4-4.9 1.3-7.2 0.8-2.1 2.1-4 3.7-5.6s3.6-2.9 5.8-3.7c2.4-0.9 4.9-1.4 7.5-1.3 1.4 0 2.7 0.1 4 0.3 1.2 0.2 2.3 0.5 3.5 1 2 0.8 3.8 1.9 5.3 3.3l-2 3.2c-0.3 0.5-0.7 0.8-1.3 0.9s-1.2 0-1.7-0.4c-0.6-0.4-1.1-0.7-1.7-1s-1.2-0.5-1.8-0.7c-0.7-0.2-1.3-0.4-2-0.5-0.8-0.1-1.7-0.2-2.5-0.2-1.5 0-3 0.3-4.4 0.8-1.3 0.5-2.4 1.4-3.3 2.4-1 1.1-1.7 2.3-2.1 3.7-0.5 1.6-0.8 3.2-0.7 4.8 0 1.8 0.3 3.5 0.8 5.2 0.5 1.4 1.3 2.7 2.3 3.8 1 1 2.2 1.8 3.5 2.4 2.5 0.9 5.2 1.1 7.7 0.5 0.9-0.2 1.8-0.6 2.7-1v-5.9h-4c-0.4 0-0.8-0.1-1.1-0.4-0.3-0.2-0.4-0.6-0.4-1v-4h12v14.4c-1.8 1.5-3.7 2.5-5.8 3.1z"/>
	<path d="m1123.3 154.6v5.7h-14.9v9h11.6v5.5h-11.6v9.1h14.9v5.7h-22.3v-34.9h22.3z"/>
		<rect transform="matrix(-.5985 .8011 -.8011 -.5985 918.72 -206.72)" x="484.3" y="123.6" width="53.7" height="6.5"/>
		<rect transform="matrix(-.4457 .8952 -.8952 -.4457 826.47 -250.53)" x="477.9" y="127.4" width="25.9" height="6.5"/>
	<rect transform="matrix(-.28 .96 -.96 -.28 727.85 -309.07)" x="459.5" y="115.2" width="40.7" height="6.5"/>
		<rect transform="matrix(-.103 .9947 -.9947 -.103 633.52 -325.88)" x="450.8" y="119.5" width="25.9" height="6.5"/>
		<rect transform="matrix(-.9971 .076371 -.076371 -.9971 906.79 207.29)" x="446.2" y="106.5" width="6.5" height="29"/>
		<rect transform="matrix(-.9674 .2533 -.2533 -.9674 890.85 140.87)" x="433.1" y="117.9" width="6.5" height="19.8"/>
		<rect transform="matrix(-.9066 .422 -.422 -.9066 867.28 78.752)" x="421.7" y="128.7" width="6.5" height="13.3"/>
		<rect transform="matrix(-.8169 .5767 -.5767 -.8169 839.52 23.9)" x="412.7" y="142.6" width="6.5" height="5.2"/>
		<rect transform="matrix(-.7007 .7135 -.7135 -.7007 786.95 -35.129)" x="397.6" y="136.9" width="6.5" height="21.3"/>
	<polygon points="399.1 166.8 375.6 150.7 379.2 145.3 402.8 161.4"/>
		<rect transform="matrix(-.4051 .9143 -.9143 -.4051 701.39 -113.99)" x="384.5" y="163.1" width="6.5" height="16.2"/>
		<rect transform="matrix(-.2355 .9719 -.9719 -.2355 631.73 -136.2)" x="366.2" y="157.8" width="6.5" height="45.2"/>
		<rect transform="matrix(-.058087 .9983 -.9983 -.058087 591.04 -164.76)" x="370" y="180" width="6.5" height="32.8"/>
		<rect transform="matrix(-.9927 .1208 -.1208 -.9927 771.01 375.59)" x="358.1" y="207.9" width="32" height="6.5"/>
		<rect transform="matrix(-.9551 .2964 -.2964 -.9551 826.14 318.58)" x="385.2" y="218.7" width="7.4" height="6.5"/>
		<rect transform="matrix(-.8868 .4621 -.4621 -.8868 836.47 271.11)" x="371.6" y="234.7" width="26.9" height="6.5"/>
	<rect transform="matrix(-.79 .613 -.613 -.79 855.16 208.36)" x="377.4" y="247.4" width="29" height="6.5"/>
		<rect transform="matrix(-.6677 .7444 -.7444 -.6677 864.63 135.86)" x="387.9" y="257.7" width="28.3" height="6.5"/>
		<rect transform="matrix(-.5243 .8515 -.8515 -.5243 860.37 45.482)" x="411" y="259.8" width="13" height="6.5"/>
		<rect transform="matrix(-.3639 .9314 -.9314 -.3639 838 -23.081)" x="414.2" y="271.4" width="25.4" height="6.5"/>
		<rect transform="matrix(-.1915 .9815 -.9815 -.1915 797.38 -101.83)" x="429" y="274.3" width="23.3" height="6.5"/>
		<rect transform="matrix(-.013439 .9999 -.9999 -.013439 736.04 -175.37)" x="446.4" y="272.2" width="16.2" height="6.5"/>
		<rect transform="matrix(-.9862 .1656 -.1656 -.9862 978.3 482.19)" x="465.8" y="266.2" width="6.5" height="31.4"/>
		<rect transform="matrix(-.9408 .3389 -.3389 -.9408 1026.1 365.47)" x="477.9" y="262.8" width="6.5" height="18.9"/>
	<polygon points="485.8 260.1 509.4 300.2 515 296.9 491.4 256.8"/>
	<polygon points="499.6 257.5 496 253.8 500.7 249.4 504.2 253"/>
		<rect transform="matrix(-.6338 .7735 -.7735 -.6338 1034.1 9.977)" x="511.5" y="239.3" width="6.5" height="20.9"/>
		<rect transform="matrix(-.4854 .8743 -.8743 -.4854 982.72 -102.52)" x="518.3" y="228.5" width="6.5" height="18.9"/>
		<rect transform="matrix(-.3214 .9469 -.9469 -.3214 901.87 -198.51)" x="518.8" y="219.7" width="6.5" height="8.4"/>
		<rect transform="matrix(-.1473 .9891 -.9891 -.1473 822.48 -283.29)" x="530.1" y="200.3" width="6.5" height="25.3"/>
		<rect transform="matrix(-.9996 .029987 -.029987 -.9996 1064.8 382.65)" x="521.5" y="196.1" width="16.1" height="6.5"/>
		<rect transform="matrix(-.9778 .2094 -.2094 -.9778 1087.2 255.52)" x="519.9" y="182.1" width="20.3" height="6.5"/>
		<rect transform="matrix(-.9246 .3809 -.3809 -.9246 1072.7 134.7)" x="516.1" y="170.3" width="13.8" height="6.5"/>
		<rect transform="matrix(-.8419 .5397 -.5397 -.8419 1056.2 .1451)" x="508" y="151.6" width="40.2" height="6.5"/>
		<rect transform="matrix(-.7318 .6815 -.6815 -.7318 982 -78.618)" x="503" y="150.7" width="7" height="6.5"/>
	<polygon points="479.5 171.8 477 169.7 478.7 167.7 481.2 169.8 480 171.2"/>
		<rect transform="matrix(-.4454 .8953 -.8953 -.4454 833.12 -177.44)" x="466.6" y="167.7" width="9.9" height="3.2"/>
		<rect transform="matrix(-.2785 .9604 -.9604 -.2785 754.4 -236.76)" x="463.3" y="163.4" width="5.7" height="3.2"/>
		<rect transform="matrix(-.1024 .9947 -.9947 -.1024 671.15 -274.15)" x="454.4" y="164.1" width="9.8" height="3.2"/>
		<rect transform="matrix(-.9971 .076371 -.076371 -.9971 916.94 295.44)" x="451.2" y="160.7" width="3.2" height="9"/>
		<rect transform="matrix(-.9674 .2533 -.2533 -.9674 921.33 216.41)" x="445.1" y="161.8" width="3.2" height="11.5"/>
		<rect transform="matrix(-.9067 .4218 -.4218 -.9067 913.19 138.92)" x="439.6" y="163.8" width="3.2" height="13.3"/>
	<polygon points="440.7 183.1 430.8 169 433.4 167.1 443.3 181.3"/>
		<rect transform="matrix(-.7007 .7135 -.7135 -.7007 858.25 -6.6741)" x="428.9" y="171.1" width="3.2" height="11.1"/>
		<rect transform="matrix(-.5619 .8272 -.8272 -.5619 815.32 -69.358)" x="424.4" y="176.2" width="3.2" height="9.9"/>
		<rect transform="matrix(-.4053 .9142 -.9142 -.4053 767.5 -124.46)" x="422.6" y="181" width="3.2" height="12.8"/>
		<rect transform="matrix(-.2355 .9719 -.9719 -.2355 703.59 -168.96)" x="416.6" y="190" width="3.2" height="4.6"/>
		<rect transform="matrix(-.057913 .9983 -.9983 -.057913 642.09 -207.59)" x="417.4" y="195.1" width="3.2" height="8.1"/>
		<rect transform="matrix(-.9927 .121 -.121 -.9927 860.44 359.19)" x="415.1" y="204.1" width="8.4" height="3.2"/>
	<polygon points="417.2 214.9 416.2 211.8 431.9 207 432.9 210.1"/>
		<rect transform="matrix(-.8865 .4627 -.4627 -.8865 900.3 214.91)" x="418.9" y="216.2" width="9.7" height="3.2"/>
		<rect transform="matrix(-.7904 .6126 -.6126 -.7904 901.44 138.4)" x="422.4" y="221.8" width="9.2" height="3.2"/>
		<rect transform="matrix(-.668 .7442 -.7442 -.668 889.52 59.248)" x="426.8" y="226.4" width="9.5" height="3.2"/>
		<rect transform="matrix(-.524 .8517 -.8517 -.524 863.19 -21.874)" x="431" y="228.7" width="13.3" height="3.2"/>
		<rect transform="matrix(-.3634 .9316 -.9316 -.3634 821.92 -92.564)" x="437.6" y="232.9" width="10" height="3.2"/>
		<rect transform="matrix(-.1903 .9817 -.9817 -.1903 765.22 -159.58)" x="443" y="234.1" width="10.9" height="3.2"/>
		<rect transform="matrix(-.013264 .9999 -.9999 -.013264 696.74 -216.33)" x="448.7" y="234" width="12.8" height="3.2"/>
		<rect transform="matrix(-.9862 .1654 -.1654 -.9862 956.08 395)" x="460" y="233.1" width="3.2" height="8.4"/>
		<rect transform="matrix(-.9406 .3394 -.3394 -.9406 986.13 295.15)" x="465.6" y="227.6" width="3.2" height="12.3"/>
		<rect transform="matrix(-.8654 .5011 -.5011 -.8654 1004.3 200.66)" x="473.6" y="233.7" width="3.2" height="3.1"/>
	<polygon points="480.7 233.4 469.1 219.8 471.6 217.7 483.1 231.3"/>
		<rect transform="matrix(-.6338 .7735 -.7735 -.6338 961.57 -8.1288)" x="481.1" y="218" width="3.2" height="11.2"/>
		<rect transform="matrix(-.4856 .8742 -.8742 -.4856 912.73 -100.68)" x="484.4" y="212.3" width="3.2" height="11.8"/>
	<polygon points="493.6 215.9 479.1 211 480.1 207.9 494.6 212.9"/>
		<rect transform="matrix(-.1478 .989 -.989 -.1478 767.8 -248.38)" x="489.3" y="201.7" width="3.2" height="9.9"/>
		<rect transform="matrix(-.9995 .03176 -.03176 -.9995 985.95 384.85)" x="483.6" y="198.6" width="12.6" height="3.2"/>
		<rect transform="matrix(-.9778 .2096 -.2096 -.9778 1009.3 281.04)" x="484" y="192.4" width="11.5" height="3.2"/>
		<rect transform="matrix(-.9248 .3804 -.3804 -.9248 1009.3 177.2)" x="480.6" y="186.7" width="13.1" height="3.2"/>
		<rect transform="matrix(-.842 .5395 -.5395 -.842 995.42 70.273)" x="484.6" y="179.3" width="5.7" height="3.2"/>
		<rect transform="matrix(-.7319 .6814 -.6814 -.7319 952.69 -17.116)" x="472" y="177.2" width="15.4" height="3.2"/>
		<path d="m584 213.6c2 0 3.8 0.2 5.2 0.6 1.5 0.4 2.7 1 3.6 1.7s1.6 1.6 2.1 2.7c0.4 1.1 0.7 2.3 0.7 3.6 0 0.8-0.1 1.6-0.4 2.3s-0.6 1.4-1.1 2.1c-0.5 0.6-1.2 1.2-1.9 1.7-0.8 0.5-1.7 0.9-2.7 1.3 2.4 0.5 4.3 1.3 5.5 2.6s1.8 2.9 1.8 5c0 1.4-0.3 2.7-0.8 3.8-0.5 1.2-1.3 2.1-2.3 3-1 0.8-2.2 1.5-3.7 1.9-1.4 0.5-3.1 0.7-4.9 0.7h-11.7v-33.1h10.6zm-6.1 3.5v11.3h5.9c1.3 0 2.4-0.1 3.3-0.4s1.7-0.7 2.3-1.2 1.1-1.1 1.4-1.8 0.4-1.5 0.4-2.3c0-2-0.6-3.4-1.8-4.3s-3-1.4-5.4-1.4h-6.1zm7.1 26c1.3 0 2.4-0.1 3.3-0.4s1.7-0.7 2.3-1.2 1-1.2 1.3-1.9 0.4-1.5 0.4-2.4c0-1.7-0.6-3.1-1.8-4.1s-3-1.5-5.5-1.5h-7.2v11.5h7.2z"/>
		<path d="m634.6 246.7h-4c-0.8 0-1.4-0.3-1.8-0.9l-8.6-11.8c-0.3-0.4-0.5-0.6-0.8-0.8s-0.8-0.2-1.4-0.2h-3.4v13.8h-4.5v-33.1h9.3c2.1 0 3.9 0.2 5.4 0.6s2.8 1 3.8 1.8 1.7 1.8 2.2 2.9 0.7 2.4 0.7 3.8c0 1.2-0.2 2.3-0.6 3.3s-0.9 1.9-1.6 2.7-1.6 1.5-2.6 2.1-2.2 1-3.4 1.3c0.6 0.3 1.1 0.8 1.5 1.4l9.8 13.1zm-15.3-17.1c1.3 0 2.4-0.2 3.4-0.5s1.8-0.8 2.5-1.3c0.7-0.6 1.2-1.3 1.5-2.1s0.5-1.7 0.5-2.7c0-2-0.6-3.5-1.9-4.5s-3.2-1.5-5.8-1.5h-4.9v12.5h4.7z"/>
		<path d="m672.9 246.7h-3.5c-0.4 0-0.7-0.1-1-0.3-0.2-0.2-0.4-0.5-0.6-0.8l-3.1-8h-14.7l-3.1 8c-0.1 0.3-0.3 0.5-0.5 0.7-0.3 0.2-0.6 0.3-1 0.3h-3.5l13.2-33.1h4.5l13.3 33.2zm-9.3-12.3l-5.2-13.5c-0.2-0.4-0.3-0.9-0.5-1.4s-0.3-1.1-0.5-1.7c-0.3 1.2-0.7 2.3-1 3.1l-5.2 13.4h12.4z"/>
		<path d="m701.1 218.8c-0.1 0.2-0.3 0.4-0.5 0.5s-0.4 0.2-0.6 0.2c-0.3 0-0.6-0.1-0.9-0.4-0.4-0.3-0.8-0.6-1.3-0.9s-1.2-0.6-1.9-0.9-1.7-0.4-2.7-0.4-1.9 0.1-2.6 0.4c-0.8 0.3-1.4 0.6-1.9 1.1s-0.9 1-1.2 1.6-0.4 1.3-0.4 2c0 0.9 0.2 1.7 0.7 2.3s1.1 1.1 1.8 1.6c0.7 0.4 1.6 0.8 2.5 1.1s1.9 0.6 2.9 1c1 0.3 2 0.7 2.9 1.1s1.8 1 2.5 1.6 1.3 1.4 1.8 2.4c0.5 0.9 0.7 2.1 0.7 3.5s-0.2 2.8-0.7 4.1-1.2 2.4-2.2 3.3c-0.9 0.9-2.1 1.7-3.5 2.2s-2.9 0.8-4.7 0.8c-2.2 0-4.1-0.4-5.9-1.2s-3.3-1.8-4.5-3.2l1.3-2.1c0.1-0.2 0.3-0.3 0.4-0.4 0.2-0.1 0.4-0.2 0.6-0.2s0.4 0.1 0.7 0.2c0.3 0.2 0.5 0.4 0.9 0.6 0.3 0.2 0.7 0.5 1.1 0.8s0.9 0.6 1.4 0.8 1.1 0.4 1.8 0.6 1.4 0.2 2.3 0.2c1.1 0 2-0.1 2.8-0.4s1.5-0.7 2.1-1.2 1-1.2 1.3-1.9 0.5-1.6 0.5-2.5c0-1-0.2-1.8-0.7-2.5-0.5-0.6-1.1-1.2-1.8-1.6s-1.6-0.8-2.5-1.1c-1-0.3-1.9-0.6-2.9-0.9s-2-0.7-2.9-1.1c-1-0.4-1.8-1-2.5-1.6s-1.3-1.5-1.8-2.5-0.7-2.2-0.7-3.7c0-1.2 0.2-2.3 0.7-3.4s1.1-2.1 2-2.9 1.9-1.5 3.2-2 2.7-0.8 4.4-0.8c1.8 0 3.5 0.3 5 0.9s2.9 1.4 4 2.5l-1 2.4z"/>
		<path d="m720.6 246.7h-4.5v-33.1h4.5v33.1z"/>
		<path d="M754.8,242.9v3.8H736v-33.1h4.5v29.3H754.8z"/>
</g>
</svg>

