<svg fill="none" width="170" height="56" xmlns="http://www.w3.org/2000/svg"><g fill="#fff"><path d="M169.35.296H97.06v24h72.29zM37.442 31.704H0v24h37.442zM47.593 49.634v-1.92h-7.234v1.414c0 4.249 2.303 6.71 8.342 6.71 6.76 0 8.533-2.747 8.533-7.102 0-3.776-2.067-5.284-6.429-8.175-2.398-1.605-2.684-2.105-2.684-3.355 0-1.07.335-1.427.91-1.427.72 0 1.006.322 1.006 1.535v1.82h6.712V37.67c0-3.21-1.198-6.318-8.005-6.318-6.185 0-8.102 2.927-8.102 6.748 0 3.46 1.821 4.854 5.704 7.565 2.924 2.036 3.212 2.571 3.212 4.355 0 .9-.24 1.4-.91 1.4-.72 0-1.055-.359-1.055-1.786z"/><path fill-rule="evenodd" clip-rule="evenodd" d="m65.953 50.044-.39 5.66h-7.529l3.312-24h11.809l3.024 24h-7.35l-.39-5.66zm2.157-4.71c-.144-1.822-.719-7.337-.863-8.622h-.335a275.71 275.71 0 0 1-.296 4.114v.003c-.145 1.926-.303 3.333-.376 4.504zM86.63 31.724h-8.867v24.013h9.06c6.28 0 8.582-2.132 8.582-6.595v-2.035c0-2.927-2.11-3.925-3.835-4.425 1.82-.43 3.402-1.535 3.402-4.462v-1.178c0-3.89-3.402-5.318-8.341-5.318zm.864 7.56c0 1.041-.526 1.4-1.39 1.4l-.915.003v-4.746h.723c1.387 0 1.582.714 1.582 1.497zM85.86 51.319h-.672v-6.531h.433c1.342 0 1.772.464 1.772 1.571v3.319c0 1.07-.24 1.641-1.533 1.641z"/><path d="M110.546 45.324h-5.844v5.496h7.047l-.862 4.917h-13.82V31.724h13.76v4.677h-6.137v4.246h5.845zM113.26 31.724v24.023l6.764-.01c0-2.739-.624-11.377-.864-14.018h.39c.064.355.563 2.81 1.125 5.574v.002l.002.01.003.01v.001l.004.023.002.007c.673 3.31 1.507 7.286 1.72 8.391h8.063V31.724h-6.712c0 2.213.624 9.21 1.152 12.956h-.338c-.19-.998-2.586-10.357-3.354-12.956z"/><path fill-rule="evenodd" clip-rule="evenodd" d="M132.775 31.724h8.342c6.278 0 9.225 1.743 9.225 7.277v8.743c0 4.962-1.652 7.993-8.123 7.993h-9.444zm7.623 19.523h.68c1.198 0 1.63-.5 1.63-1.569V37.506c0-1.25-.623-1.535-1.677-1.535h-.623zM170 49.432v-11.35c0-4.64-3.836-6.675-8.916-6.675-5.081 0-8.726 1.99-8.726 6.39v11.635c0 4.677 3.166 6.568 8.535 6.568 5.56 0 9.107-1.747 9.107-6.568zm-10.019.68V37.404c0-1.071.383-1.417 1.103-1.435.863 0 1.198.33 1.198 1.4v12.743c0 .964-.43 1.428-1.15 1.428-.816 0-1.15-.536-1.15-1.428z"/><path d="M0 .296h12.385v3.465H4.896v6.273h7.221v3.596h-7.22v10.666H0zM19.873 24.296v-24h-4.939v24z"/><path fill-rule="evenodd" clip-rule="evenodd" d="M37.466 6.676v11.132c0 1.89-.446 3.368-1.352 4.451l3.632 2.778-2.304 3.111-5.174-3.855c-.84.164-1.783.244-2.832.244-5.204 0-7.547-2.215-7.547-6.665V6.65c0-4.567 3.088-6.65 7.86-6.65 4.855 0 7.717 2.09 7.717 6.676zm-10.55-.36v11.996c0 1.98.961 2.91 2.742 2.91 1.92 0 2.778-.867 2.778-2.964V6.29c0-1.894-.78-2.94-2.784-2.94-1.779 0-2.735.948-2.735 2.966z"/><path d="M45.211 18.483V.296h-4.94V18.42c0 4.064 2.437 6.113 7.525 6.113 5.344 0 7.627-2.365 7.627-6.125V.296H50.48v18.192c0 1.615-.633 2.729-2.591 2.729-1.913 0-2.677-.992-2.677-2.734zM70.562 13.63h-7.039v7.177h8.112l-.625 3.49H58.583v-24h12.268V3.76h-7.328v6.158h7.039zM89.727 3.49c-.098 2.734-.155 7.78-.155 11.83v8.976h4.608v-24h-7.034c-.353 1.574-.74 3.304-1.127 4.98-1.018 4.414-2.034 8.815-2.41 11.266h-.05c-.428-3.34-1.716-10.186-2.96-16.246h-7.444v24h4.566v-8.561c0-4.101-.15-9.495-.245-12.274h.095c.322 1.918.85 4.972 1.428 8.317.733 4.244 1.547 9.06 2.125 12.518h4.658c1.39-6.905 3.16-16.667 3.897-20.805z"/></g></svg>
