<?xml version="1.0" encoding="UTF-8"?>
<svg version="1.1" viewBox="0 0 217.7 65.9" xml:space="preserve" xmlns="http://www.w3.org/2000/svg" xmlns:cc="http://creativecommons.org/ns#" xmlns:dc="http://purl.org/dc/elements/1.1/" xmlns:rdf="http://www.w3.org/1999/02/22-rdf-syntax-ns#" xmlns:xlink="http://www.w3.org/1999/xlink"><metadata><rdf:RDF><cc:Work rdf:about=""><dc:format>image/svg+xml</dc:format><dc:type rdf:resource="http://purl.org/dc/dcmitype/StillImage"/><dc:title/></cc:Work></rdf:RDF></metadata><g transform="translate(-16.8,-15.8)"><defs><rect id="d" x="16.8" y="15.8" width="217.8" height="61.5"/></defs><clipPath id="b"><use width="100%" height="100%" xlink:href="#d"/></clipPath><path d="m145.3 34.6c0.6 5.7 5.4 7.1 9.6 7.1 5.4 0 8.6-2.3 8.6-6.9 0-5.5-4.7-6.6-8.4-7.3-3.6-0.7-6.9-1.6-6.9-5.2 0-2.9 2.1-4.6 6.1-4.6s6.2 1.8 6.9 4.8l2-0.5c-1-4.3-4.4-6.1-8.9-6.1-5.2 0-8.1 2.5-8.1 6.6 0 5 4.4 6.1 7.8 6.9 3.1 0.7 7.6 1 7.6 5.6 0 3.4-2.4 5-6.5 5s-7.5-1.7-7.7-5.8l-2.1 0.4zm-26.5-5.8c0-6.8 4.8-11 10.8-11s10.8 4.1 10.8 11-4.8 11.1-10.8 11.1c-6.1-0.1-10.8-4.3-10.8-11.1m-2.1 0c0 7.8 5.7 13 12.9 13s12.9-5.1 12.9-13c0-7.8-5.7-13-12.9-13s-12.9 5.1-12.9 13m-22.5 10.6v-21.2h6c6.5 0 11.3 3.8 11.3 10.7s-4.9 10.5-11.1 10.5h-6.2zm-2-23.1v25h8.4c7.5 0 13-4.6 13-12.4s-5.5-12.6-13.3-12.6h-8.1zm-8 25h2v-25h-2v25zm-23.8-1.9v-21.2h6c6.5 0 11.3 3.8 11.3 10.7s-4.9 10.5-11.1 10.5h-6.2zm-2.1-23.1v25h8.4c7.5 0 13-4.6 13-12.4s-5.5-12.6-13.3-12.6h-8.1zm-21.3 25h16.5v-1.9h-14.4v-10.3h11.4v-2h-11.4v-8.9h14.4v-1.9h-16.5v25zm-18.2-11.8v-11.3h5.1c4.4 0 7.1 1.7 7.1 5.7 0 3.7-2.4 5.7-7.1 5.7h-5.1zm-2-13.2v25h2v-9.9h5c5.7 0 9.2-2.7 9.2-7.6 0-5-3.4-7.5-9.2-7.5h-7z" clip-path="url(#b)"/></g><rect x="75.3" y="30.4" width="142.4" height="35.5"/><g transform="translate(-16.8,-15.8)"><defs><rect id="c" x="16.8" y="15.8" width="217.8" height="61.5"/></defs><clipPath id="a"><use width="100%" height="100%" xlink:href="#c"/></clipPath><path d="m215.7 68.5c0.7 3.8 4 4.7 6.9 4.7 3.9 0 6.2-1.7 6.2-4.9 0-3.7-2.9-4.6-5.5-5.1-2.4-0.5-4.4-0.9-4.4-2.8 0-1.4 1-2.3 3.2-2.3s3.5 0.9 3.9 2.6l2.5-0.7c-0.8-2.9-3.2-4.3-6.4-4.3-3.6 0-5.9 1.7-5.9 4.8 0 3.5 2.9 4.4 5.2 4.9 2.1 0.5 4.6 0.5 4.6 2.9 0 1.7-1.3 2.6-3.5 2.6-2.3 0-4.1-1-4.3-3l-2.5 0.6zm-16.6-4.1c0-3.9 2.7-6.3 6.1-6.3 3.5 0 6.2 2.4 6.2 6.3s-2.7 6.3-6.2 6.3c-3.4-0.1-6.1-2.5-6.1-6.3m-2.6 0c0 5.2 3.8 8.8 8.8 8.8s8.8-3.5 8.8-8.8c0-5.2-3.8-8.8-8.8-8.8s-8.8 3.5-8.8 8.8m-5.2 8.4h2.7v-16.9h-2.7l-5.2 9.4h-0.1l-5.2-9.4h-2.8v16.9h2.7v-6.4-6.1s0.7 1.4 2 3.8l2.6 4.6h1.5l2.6-4.6c1.3-2.3 2-3.7 2-3.7v6.1 6.3zm-19.5 0h2.7v-16.9h-2.7v16.9zm-6.1 0h2.7v-16.9h-2.7v8.4 4h-0.1l-9-12.4h-2.7v16.9h2.7v-8.4-4.2l9.1 12.6zm-29.1-8.4c0-3.9 2.7-6.3 6.1-6.3 3.5 0 6.2 2.4 6.2 6.3s-2.7 6.3-6.2 6.3c-3.4-0.1-6.1-2.5-6.1-6.3m-2.7 0c0 5.2 3.8 8.8 8.8 8.8s8.8-3.5 8.8-8.8c0-5.2-3.8-8.8-8.8-8.8s-8.8 3.5-8.8 8.8m12.5-11.1-3.7-3-3.7 2.9 1.2 1.4 2.6-2 2.5 2 1.1-1.3zm-17.7 19.5h2.7v-16.9h-2.7v8.4 4h-0.1l-9-12.4h-2.6v16.9h2.7v-8.4-4.2l9 12.6zm-19.2-6.3h-6.2l1.6-4.1c0.6-1.5 1.4-3.4 1.4-3.5h0.1l1.4 3.5 1.7 4.1zm1 2.4 1.6 3.9h2.8l-6.9-16.9h-3l-7 16.9h2.8l1.6-3.9h8.1z" clip-path="url(#a)" fill="#fff"/></g></svg>
